<?xml version="1.0" encoding="UTF-8" standalone="no"?>
<!DOCTYPE svg PUBLIC "-//W3C//DTD SVG 1.1//EN" "http://www.w3.org/Graphics/SVG/1.1/DTD/svg11.dtd">
<svg width="100%" height="100%" viewBox="0 0 80 80" version="1.1" xmlns="http://www.w3.org/2000/svg" xmlns:xlink="http://www.w3.org/1999/xlink" xml:space="preserve" xmlns:serif="http://www.serif.com/" style="fill-rule:evenodd;clip-rule:evenodd;stroke-linejoin:round;stroke-miterlimit:2;">
    <g transform="matrix(0.672637,0,0,0.691622,500.967,983.001)">
        <g id="Layer-1" serif:id="Layer 1">
            <g id="text3042-8-1-5-8-6-4-9-2-3-4-2-8">
                <path id="path5460-3-66" d="M-697.313,-1410.5C-710.395,-1410.5 -721.588,-1405.87 -730.875,-1396.66C-740.162,-1387.44 -744.781,-1376.3 -744.781,-1363.22C-744.781,-1350.13 -740.162,-1338.94 -730.875,-1329.66C-721.588,-1320.37 -710.395,-1315.68 -697.313,-1315.75L-690.633,-1315.78C-687.785,-1315.81 -686.904,-1316.11 -685.835,-1317.13C-681.206,-1321.73 -677.305,-1325.97 -672.737,-1330.62C-671.116,-1332.75 -672.705,-1334.45 -674.407,-1334.53L-697.313,-1334.53C-705.333,-1334.53 -712.132,-1337.29 -717.688,-1342.84C-723.243,-1348.4 -726,-1355.2 -726,-1363.22C-726,-1371.1 -723.243,-1377.82 -717.688,-1383.38C-712.132,-1388.93 -705.333,-1391.72 -697.313,-1391.72C-689.434,-1391.72 -682.714,-1388.93 -677.156,-1383.38C-671.598,-1377.82 -668.901,-1371.98 -668.813,-1363.22C-668.819,-1363.09 -668.935,-1332.69 -668.935,-1332.69C-668.935,-1331.98 -668.722,-1331.26 -668.033,-1330.61C-668.033,-1330.61 -659.408,-1321.89 -653.957,-1316.36C-652.703,-1315.17 -650.053,-1315.92 -650.031,-1318.09L-650.031,-1363.22C-650.031,-1376.3 -654.659,-1387.44 -663.875,-1396.66C-673.091,-1405.87 -684.23,-1410.5 -697.312,-1410.5Z" style="fill:rgb(255,82,82);fill-rule:nonzero;"/>
                <g id="path5462-5-2" transform="matrix(1,0,0,1,-318.628,-293.115)">
                    <path d="M-325.813,-1115.76L-325.813,-1102.1C-325.818,-1100.63 -325,-1099.75 -323.67,-1099.59L-309.482,-1099.59C-308.173,-1099.69 -307.25,-1100.58 -307.219,-1101.94L-307.219,-1115.85C-307.249,-1117.18 -308.126,-1118.06 -309.545,-1118.06L-323.482,-1118.06C-325.055,-1118.02 -325.844,-1116.99 -325.813,-1115.76ZM-325.813,-1091.82L-325.813,-1039.71C-325.909,-1038.4 -325.529,-1037.69 -324.747,-1037.05L-311.238,-1023.31C-309.568,-1021.93 -307.234,-1022.89 -307.219,-1024.93L-307.219,-1091.72C-307.294,-1093.25 -308.296,-1094.03 -309.513,-1094.03L-323.482,-1094.03C-324.91,-1094 -325.875,-1093.14 -325.813,-1091.82Z" style="fill:rgb(255,82,82);fill-rule:nonzero;"/>
                </g>
            </g>
        </g>
    </g>
</svg>
