<?xml version="1.0" encoding="UTF-8" standalone="no"?>
<!-- Created with Inkscape (http://www.inkscape.org/) -->

<svg
   xmlns:dc="http://purl.org/dc/elements/1.1/"
   xmlns:cc="http://creativecommons.org/ns#"
   xmlns:rdf="http://www.w3.org/1999/02/22-rdf-syntax-ns#"
   xmlns:svg="http://www.w3.org/2000/svg"
   xmlns="http://www.w3.org/2000/svg"
   xmlns:sodipodi="http://sodipodi.sourceforge.net/DTD/sodipodi-0.dtd"
   xmlns:inkscape="http://www.inkscape.org/namespaces/inkscape"
   width="164"
   height="94"
   id="svg3921"
   version="1.1"
   inkscape:version="0.48.4 r9939"
   sodipodi:docname="clai-logo-blue.svg">
  <defs
     id="defs3" />
  <sodipodi:namedview
     inkscape:document-units="mm"
     id="base"
     pagecolor="#ffffff"
     bordercolor="#666666"
     borderopacity="1.0"
     inkscape:pageopacity="0.0"
     inkscape:pageshadow="2"
     inkscape:zoom="2.8"
     inkscape:cx="61.588364"
     inkscape:cy="47.976784"
     inkscape:current-layer="layer1"
     showgrid="false"
     units="px"
     fit-margin-top="2"
     fit-margin-left="2"
     fit-margin-right="2"
     fit-margin-bottom="2"
     inkscape:window-width="1920"
     inkscape:window-height="1017"
     inkscape:window-x="1912"
     inkscape:window-y="-8"
     inkscape:window-maximized="1" />
  <metadata
     id="metadata4">
    <rdf:RDF>
      <cc:Work
         rdf:about="">
        <dc:format>image/svg+xml</dc:format>
        <dc:type
           rdf:resource="http://purl.org/dc/dcmitype/StillImage" />
        <dc:title />
      </cc:Work>
    </rdf:RDF>
  </metadata>
  <g
     inkscape:label="Layer 1"
     inkscape:groupmode="layer"
     id="layer1"
     transform="translate(-265.61575,-484.46352)">
    <g
       transform="matrix(0.67660169,0,0,0.67806927,851.06446,1468.6257)"
       style="font-size:58.62000656000000000px;font-style:normal;font-variant:normal;font-weight:normal;font-stretch:normal;line-height:125%;letter-spacing:0px;word-spacing:0px;fill:#00bcd4;fill-opacity:1;stroke:none;font-family:Pemari Rezland;-inkscape-font-specification:Pemari Rezland"
       id="text3042-8-1-5-8-6-4-9-2-3-4-2-8">
      <path
         d="m -848.60503,-1396.5916 c 9.28243,-9.2867 20.4658,-13.9301 33.55015,-13.9301 13.08425,0 24.26977,4.6434 33.55659,13.9301 l 4.97785,4.9778 c 0.86935,1.1117 0.77063,2.2276 0.007,3.1487 l -9.82192,9.9766 c -1.02357,1.0508 -2.40446,1.0336 -3.4456,0.046 l -5.00947,-4.8565 c -5.62878,-5.6243 -12.38238,-8.4365 -20.26082,-8.4366 -7.87854,10e-5 -14.63214,2.8123 -20.26083,8.4366 -5.62874,5.3497 -8.4431,11.9981 -8.44308,19.9453 -2e-5,7.9472 2.81434,14.7352 8.44308,20.3638 5.62869,5.6288 12.38229,8.4431 20.26083,8.4431 8.2992,0 15.0528,-2.8143 20.26082,-8.4431 l 5.10619,-4.9502 c 0.91897,-0.9431 2.18283,-0.9662 3.123,-0.089 l 10.039,10.202 c 0.88169,1.0329 0.80434,2.2238 0.0331,3.1275 l -5.00879,5.0088 c -9.28682,9.2825 -20.47234,13.9237 -33.55659,13.9237 -13.08435,0 -24.26772,-4.6412 -33.55015,-13.9237 -9.14507,-9.145 -13.7176,-20.2951 -13.7176,-33.4503 0,-13.1551 4.57253,-24.3052 13.7176,-33.4503 z"
         style="font-size:211.03202819999998000px;fill:#00bcd4;font-family:Pemari Rezland;-inkscape-font-specification:Pemari Rezland;fill-opacity:1"
         id="path5456-9-69"
         inkscape:connector-curvature="0"
         sodipodi:nodetypes="csscccccccscsccccccssscc" />
      <path
         style="font-size:211.03202819999998000px;fill:#00bcd4;font-family:Pemari Rezland;-inkscape-font-specification:Pemari Rezland;fill-opacity:1"
         d="m -769.25,-1446.1468 0,113.2643 c -0.008,1.0352 0.18638,1.7046 0.92431,2.4538 l 13.87267,14.0579 c 1.61893,1.3411 3.947,0.4422 3.98427,-1.7066 l 0,-128.202 c -0.0754,-1.2615 -0.9157,-2.1894 -2.322,-2.1894 l -14.18633,0 c -1.26343,0.083 -2.31711,0.9503 -2.27292,2.322 z"
         id="path5458-1-8"
         inkscape:connector-curvature="0"
         sodipodi:nodetypes="ccccccccc" />
      <path
         style="fill:#00bcd4;fill-opacity:1"
         d="m -697.3125,-1410.5 c -13.08219,0 -24.27577,4.6257 -33.5625,13.8438 -9.28675,9.2138 -13.90625,20.3532 -13.90625,33.4374 0,13.0845 4.6195,24.2779 13.90625,33.5626 9.28673,9.2844 20.48048,13.9729 33.5625,13.9062 l 6.67965,-0.034 c 2.84767,-0.023 3.72851,-0.3287 4.79774,-1.3449 4.62917,-4.6051 8.52999,-8.8453 13.09856,-13.493 1.62078,-2.1262 0.0312,-3.8312 -1.67002,-3.9093 l -22.90593,0 c -8.02021,0 -14.8193,-2.7546 -20.375,-8.3126 -5.55576,-5.5577 -8.31251,-12.3547 -8.3125,-20.375 -10e-6,-7.8783 2.75674,-14.6004 8.3125,-20.1562 5.5557,-5.5557 12.35479,-8.3436 20.375,-8.3438 7.87844,2e-4 14.59831,2.7881 20.15625,8.3438 5.55781,5.5558 8.25528,11.394 8.34375,20.1562 -0.006,0.1319 -0.12213,30.525 -0.12213,30.525 -3e-5,0.7189 0.21306,1.4366 0.90192,2.0823 0,0 8.6243,8.7259 14.07608,14.2521 1.25353,1.1884 3.90328,0.4379 3.92538,-1.7294 l 0,-45.13 c 0,-13.082 -4.62793,-24.2216 -13.84375,-33.4374 -9.21598,-9.2159 -20.35539,-13.8438 -33.4375,-13.8438 z"
         id="path5460-3-66"
         inkscape:connector-curvature="0"
         sodipodi:nodetypes="scscsccccscssccccsccsss" />
      <path
         style="fill:#00bcd4;fill-opacity:1"
         d="m -325.8125,-1115.7557 0,13.6563 c -0.006,1.4699 0.81278,2.3493 2.14292,2.5056 l 14.1875,0 c 1.30952,-0.093 2.23208,-0.9832 2.26333,-2.3494 l 0,-13.9062 c -0.0304,-1.3321 -0.90682,-2.2131 -2.32583,-2.2131 l -13.9375,0 c -1.57305,0.044 -2.36167,1.0706 -2.33042,2.3068 z m 0,23.9375 0,52.1077 c -0.096,1.3147 0.28349,2.0177 1.06532,2.6603 l 13.509,13.7368 c 1.66977,1.3882 4.00444,0.4265 4.01943,-1.6142 l 0,-66.7968 c -0.0748,-1.5227 -1.07773,-2.3068 -2.29458,-2.3068 l -13.96875,0 c -1.42744,0.028 -2.39292,0.8892 -2.33042,2.213 z"
         transform="translate(-318.62761,-293.11467)"
         id="path5462-5-2"
         inkscape:connector-curvature="0"
         sodipodi:nodetypes="cccccccccccccccccc" />
    </g>
  </g>
</svg>
